<svg width="20" height="20" viewBox="0 0 20 20" fill="none" xmlns="http://www.w3.org/2000/svg">
<circle cx="10" cy="10" r="10" fill="#520A76"/>
<g clip-path="url(#clip0)">
<path fill-rule="evenodd" clip-rule="evenodd" d="M3.33347 11.9979L3 10.9959V10.6619L3.33347 10.3382V9.6763H3.66694L4.00041 9.34228H3.33347L4.00041 8.34022L5.00082 8.0062H11.0012L13.6772 9.34228H13.0021L11.0012 8.34022H6.33471L5.66776 9.00826L6.66818 9.6763L7.00165 8.67424H7.33512L7.00165 9.6763H9.33388L9.00041 8.67424H9.33388L9.66735 9.6763H15.6698L17.0037 10.0103L17.6706 10.3443L17.3331 10.6763H18V11.3443L17.6706 11.6701V12.0041L17.3372 12.3382H16.1145C16.166 12.184 16.1925 12.0224 16.1927 11.8598C16.1927 11.4672 16.037 11.0906 15.7598 10.813C15.4826 10.5354 15.1067 10.3794 14.7147 10.3794C14.3227 10.3794 13.9468 10.5354 13.6696 10.813C13.3924 11.0906 13.2367 11.4672 13.2367 11.8598C13.2366 12.0226 13.2637 12.1843 13.317 12.3382H7.17867C7.23027 12.184 7.25669 12.0224 7.2569 11.8598C7.2569 11.4672 7.10118 11.0906 6.82401 10.813C6.54683 10.5354 6.1709 10.3794 5.77892 10.3794C5.38694 10.3794 5.01101 10.5354 4.73384 10.813C4.45666 11.0906 4.30095 11.4672 4.30095 11.8598C4.30081 12.0226 4.32795 12.1843 4.38123 12.3382H4.00041L3.33347 12.0041V11.9979ZM14.7147 10.7072C14.9412 10.7073 15.1626 10.7748 15.3508 10.901C15.5391 11.0273 15.6856 11.2066 15.7721 11.4163C15.8585 11.6261 15.8808 11.8568 15.8362 12.0792C15.7916 12.3017 15.6821 12.5059 15.5216 12.666H17.3372V13H3.33965V12.666H4.98641C4.82568 12.5059 4.71601 12.3017 4.67131 12.0791C4.62661 11.8566 4.64888 11.6257 4.73531 11.4158C4.82173 11.206 4.96842 11.0265 5.15678 10.9003C5.34514 10.774 5.56668 10.7066 5.79333 10.7066C6.01998 10.7066 6.24152 10.774 6.42988 10.9003C6.61824 11.0265 6.76493 11.206 6.85135 11.4158C6.93778 11.6257 6.96005 11.8566 6.91535 12.0791C6.87065 12.3017 6.76098 12.5059 6.60025 12.666H13.9078C13.7473 12.5059 13.6378 12.3017 13.5932 12.0792C13.5486 11.8568 13.5709 11.6261 13.6573 11.4163C13.7437 11.2066 13.8903 11.0273 14.0786 10.901C14.2668 10.7748 14.4882 10.7073 14.7147 10.7072ZM15.1923 11.8536C15.1923 11.9805 15.1419 12.1022 15.0524 12.1919C14.9628 12.2816 14.8414 12.332 14.7147 12.332C14.588 12.332 14.4666 12.2816 14.377 12.1919C14.2874 12.1022 14.2371 11.9805 14.2371 11.8536H14.5706C14.5706 11.8919 14.5858 11.9286 14.6128 11.9557C14.6398 11.9827 14.6765 11.9979 14.7147 11.9979C14.7529 11.9979 14.7896 11.9827 14.8166 11.9557C14.8436 11.9286 14.8588 11.8919 14.8588 11.8536H15.1923ZM14.7147 11.0412C14.8751 11.0412 15.0319 11.0889 15.1653 11.1782C15.2987 11.2674 15.4026 11.3943 15.464 11.5427C15.5254 11.6912 15.5414 11.8545 15.5101 12.0121C15.4789 12.1697 15.4016 12.3144 15.2882 12.4281C15.1748 12.5417 15.0302 12.619 14.8729 12.6504C14.7156 12.6817 14.5525 12.6656 14.4043 12.6042C14.2561 12.5427 14.1295 12.4385 14.0403 12.3049C13.9512 12.1714 13.9037 12.0143 13.9037 11.8536C13.9037 11.6382 13.9891 11.4315 14.1412 11.2792C14.2933 11.1268 14.4996 11.0412 14.7147 11.0412ZM6.25648 11.8536C6.25648 11.9805 6.20617 12.1022 6.11661 12.1919C6.02705 12.2816 5.90558 12.332 5.77892 12.332C5.65226 12.332 5.53079 12.2816 5.44123 12.1919C5.35167 12.1022 5.30136 11.9805 5.30136 11.8536H5.63483C5.63483 11.8726 5.63856 11.8913 5.6458 11.9089C5.65304 11.9264 5.66365 11.9423 5.67703 11.9557C5.69041 11.9691 5.7063 11.9797 5.72378 11.987C5.74126 11.9942 5.76 11.9979 5.77892 11.9979C5.79784 11.9979 5.81658 11.9942 5.83406 11.987C5.85155 11.9797 5.86743 11.9691 5.88081 11.9557C5.89419 11.9423 5.9048 11.9264 5.91204 11.9089C5.91929 11.8913 5.92301 11.8726 5.92301 11.8536H6.25648ZM5.77892 11.0412C5.93933 11.0412 6.09613 11.0889 6.22951 11.1782C6.36288 11.2674 6.46683 11.3943 6.52822 11.5427C6.5896 11.6912 6.60566 11.8545 6.57437 12.0121C6.54308 12.1697 6.46583 12.3144 6.35241 12.4281C6.23898 12.5417 6.09447 12.619 5.93715 12.6504C5.77982 12.6817 5.61675 12.6656 5.46855 12.6042C5.32035 12.5427 5.19369 12.4385 5.10457 12.3049C5.01545 12.1714 4.96789 12.0143 4.96789 11.8536C4.96789 11.6382 5.05334 11.4315 5.20543 11.2792C5.35753 11.1268 5.56382 11.0412 5.77892 11.0412ZM3.60519 11.7629L3.96953 11.9443C3.96953 11.9155 3.96953 11.8845 3.96953 11.8536C3.96953 11.3724 4.16038 10.9109 4.50009 10.5706C4.83981 10.2303 5.30055 10.0392 5.78098 10.0392C6.2614 10.0392 6.72215 10.2303 7.06186 10.5706C7.40158 10.9109 7.59242 11.3724 7.59242 11.8536C7.59242 11.9031 7.59242 11.9505 7.59242 11.9979H12.9094C12.9094 11.9505 12.9094 11.9031 12.9094 11.8536C12.9094 11.3724 13.1003 10.9109 13.44 10.5706C13.7797 10.2303 14.2404 10.0392 14.7209 10.0392C15.2013 10.0392 15.662 10.2303 16.0018 10.5706C16.3415 10.9109 16.5323 11.3724 16.5323 11.8536C16.5323 11.9031 16.5323 11.9505 16.5323 11.9979H17.2116L17.3495 11.8598V11.532L17.6789 11.2041V11.0103H16.5179L17.1025 10.4351L16.8864 10.3258L15.6369 10.0041H6.57966L5.13874 9.05774L5.8592 8.33609H5.05434L4.21449 8.61651L3.95513 9.00414H4.80527L3.80486 10.0062H3.66694V10.4825L3.33347 10.8062V10.9443L3.60519 11.7691V11.7629Z" fill="white"/>
</g>
<defs>
<clipPath id="clip0">
<rect width="15" height="5" fill="white" transform="translate(3 8)"/>
</clipPath>
</defs>
</svg>
