<svg width="20" height="20" viewBox="0 0 20 20" fill="none" xmlns="http://www.w3.org/2000/svg">
<circle cx="10" cy="10" r="10" fill="#520A76"/>
<path d="M13.8696 5C13.4805 5 6.78998 5 6.361 5L4 8.21953L10.1403 16.3124L16.2299 8.2186L13.8696 5ZM7.35681 8.57323L9.08678 13.7416L5.1654 8.57323H7.35681ZM8.11045 8.57323H12.1223L10.1301 14.6071L8.11045 8.57323ZM12.8749 8.57323H15.0688L11.1593 13.7693L12.8749 8.57323ZM13.5074 5.71465L15.0796 7.85858H12.8754L12.1719 5.71465H13.5074ZM11.4198 5.71465L12.1232 7.85858H8.10735L8.81083 5.71465H11.4198ZM6.72313 5.71465H8.05866L7.35519 7.85858H5.15091L6.72313 5.71465Z" fill="white"/>
</svg>
